<?xml version="1.0" encoding="utf-8"?>
<!DOCTYPE svg PUBLIC "-//W3C//DTD SVG 1.1//EN" "http://www.w3.org/Graphics/SVG/1.1/DTD/svg11.dtd">
<svg version="1.1" id="Layer_1" xmlns="http://www.w3.org/2000/svg" xmlns:xlink="http://www.w3.org/1999/xlink" x="0px" y="0px"
	 width="55px" height="55px" viewBox="0 0 55 55" style="enable-background:new 0 0 55 55;" xml:space="preserve">
<g>
	<path d="M46,34.214v6.429C46,41.179,46,42,46,42s-1.393,0-1.929,0h-6.429C37.107,42,36,42,36,42s0-0.821,0-1.357v-6.429
		C36,33.679,36,32,36,32s1.107,0,1.643,0H40v-4H29v4h2.214C31.75,32,33,32,33,32s0,1.679,0,2.214v6.429C33,41.179,33,42,33,42
		s-1.25,0-1.786,0h-6.428C24.25,42,23,42,23,42s0-0.821,0-1.357v-6.429C23,33.679,23,32,23,32s1.25,0,1.786,0H27v-4H16v4h2.357
		C18.893,32,20,32,20,32s0,1.679,0,2.214v6.429C20,41.179,20,42,20,42s-1.107,0-1.643,0h-6.429C11.393,42,10,42,10,42
		s0-0.821,0-1.357v-6.429C10,33.679,10,32,10,32s1.393,0,1.929,0H14v-3.571C14,27.732,14,26,14,26s1.732,0,2.429,0H27v-4h-2.214
		C24.25,22,23,22,23,22s0-1.393,0-1.929v-6.429C23,13.107,23,12,23,12s1.25,0,1.786,0h6.428C31.75,12,33,12,33,12s0,1.107,0,1.643
		v6.429C33,20.607,33,22,33,22s-1.25,0-1.786,0H29v4h10.571C40.268,26,42,26,42,26s0,1.732,0,2.429V32h2.071H46V34.214z"/>
</g>
</svg>
