<?xml version="1.0" encoding="utf-8"?>
<!DOCTYPE svg PUBLIC "-//W3C//DTD SVG 1.1//EN" "http://www.w3.org/Graphics/SVG/1.1/DTD/svg11.dtd">
<svg version="1.1" id="Layer_1" xmlns="http://www.w3.org/2000/svg" xmlns:xlink="http://www.w3.org/1999/xlink" x="0px" y="0px"
	 width="100px" height="100px" viewBox="0 0 100 100" style="enable-background:new 0 0 100 100;" xml:space="preserve">
<path style="fill:#FF9900;" d="M100,94c0,3.313-2.687,6-6,6H6c-3.313,0-6-2.687-6-6V6c0-3.313,2.687-6,6-6h88c3.313,0,6,2.687,6,6
	V94z"/>
<g>
	<path style="fill:#FFFFFF;" d="M85,62.75v12.5c0,1.041,0,3.75,0,3.75h-3.75h-12.5C67.708,79,65,79,65,79v-3.75v-12.5
		c0-1.041,0-3.75,0-3.75h3.75H72v-7H52v7h4.25c1.041,0,3.75,0,3.75,0v3.75v12.5c0,1.041,0,3.75,0,3.75h-3.75h-12.5
		C42.708,79,40,79,40,79v-3.75v-12.5c0-1.041,0-3.75,0-3.75h3.75H47v-7H27v7h4.25c1.041,0,3.75,0,3.75,0v3.75v12.5
		c0,1.041,0,3.75,0,3.75h-3.75h-12.5C17.708,79,15,79,15,79v-3.75v-12.5c0-1.041,0-3.75,0-3.75h3.75H22v-7.5c0-1.354,0-4.5,0-4.5
		h5.5H47v-8h-3.25C42.708,39,40,39,40,39v-3.75v-12.5c0-1.041,0-3.75,0-3.75h3.75h12.5c1.041,0,3.75,0,3.75,0v3.75v12.5
		c0,1.042,0,3.75,0,3.75h-3.75H52v8h20.5c1.354,0,4.5,0,4.5,0v4.5V59h4.25c1.041,0,3.75,0,3.75,0V62.75z"/>
</g>
</svg>
